<mxfile host="app.diagrams.net" modified="2024-05-27T10:50:56.529Z" agent="Mozilla/5.0 (Windows NT 10.0; Win64; x64; rv:126.0) Gecko/20100101 Firefox/126.0" etag="RFnCKWuJGxCLGz-L_F_R" version="24.4.8" type="github">
  <diagram name="Page-1" id="42789a77-a242-8287-6e28-9cd8cfd52e62">
    <mxGraphModel dx="1002" dy="746" grid="1" gridSize="10" guides="1" tooltips="1" connect="1" arrows="1" fold="1" page="1" pageScale="1" pageWidth="1100" pageHeight="850" background="none" math="0" shadow="0">
      <root>
        <mxCell id="0" />
        <mxCell id="1" parent="0" />
        <mxCell id="FplRZ4Z4rtyI1NeGkcs9-15" style="edgeStyle=orthogonalEdgeStyle;rounded=0;orthogonalLoop=1;jettySize=auto;html=1;exitX=0.25;exitY=1;exitDx=0;exitDy=0;entryX=0;entryY=0.75;entryDx=0;entryDy=0;" edge="1" parent="1" source="FplRZ4Z4rtyI1NeGkcs9-6" target="FplRZ4Z4rtyI1NeGkcs9-12">
          <mxGeometry relative="1" as="geometry" />
        </mxCell>
        <mxCell id="FplRZ4Z4rtyI1NeGkcs9-19" value="&lt;font style=&quot;font-size: 18px;&quot;&gt;Solicita &lt;br&gt;acciÃ³n&lt;br&gt;&lt;/font&gt;" style="edgeLabel;html=1;align=center;verticalAlign=middle;resizable=0;points=[];" vertex="1" connectable="0" parent="FplRZ4Z4rtyI1NeGkcs9-15">
          <mxGeometry x="0.2" y="-3" relative="1" as="geometry">
            <mxPoint as="offset" />
          </mxGeometry>
        </mxCell>
        <mxCell id="FplRZ4Z4rtyI1NeGkcs9-6" value="Vista" style="rounded=1;whiteSpace=wrap;html=1;" vertex="1" parent="1">
          <mxGeometry x="120" y="70" width="100" height="60" as="geometry" />
        </mxCell>
        <mxCell id="FplRZ4Z4rtyI1NeGkcs9-16" style="edgeStyle=orthogonalEdgeStyle;rounded=0;orthogonalLoop=1;jettySize=auto;html=1;exitX=0;exitY=0.25;exitDx=0;exitDy=0;entryX=0.75;entryY=1;entryDx=0;entryDy=0;" edge="1" parent="1" source="FplRZ4Z4rtyI1NeGkcs9-12" target="FplRZ4Z4rtyI1NeGkcs9-6">
          <mxGeometry relative="1" as="geometry" />
        </mxCell>
        <mxCell id="FplRZ4Z4rtyI1NeGkcs9-20" value="&lt;font style=&quot;font-size: 18px;&quot;&gt;Actualiza la&lt;br&gt;&lt;/font&gt;&lt;div style=&quot;font-size: 18px;&quot;&gt;&lt;font style=&quot;font-size: 18px;&quot;&gt;vista&lt;/font&gt;&lt;/div&gt;" style="edgeLabel;html=1;align=center;verticalAlign=middle;resizable=0;points=[];" vertex="1" connectable="0" parent="FplRZ4Z4rtyI1NeGkcs9-16">
          <mxGeometry x="0.325" y="1" relative="1" as="geometry">
            <mxPoint as="offset" />
          </mxGeometry>
        </mxCell>
        <mxCell id="FplRZ4Z4rtyI1NeGkcs9-18" style="edgeStyle=orthogonalEdgeStyle;rounded=0;orthogonalLoop=1;jettySize=auto;html=1;exitX=1;exitY=0.25;exitDx=0;exitDy=0;entryX=0.25;entryY=1;entryDx=0;entryDy=0;" edge="1" parent="1" source="FplRZ4Z4rtyI1NeGkcs9-12" target="FplRZ4Z4rtyI1NeGkcs9-13">
          <mxGeometry relative="1" as="geometry" />
        </mxCell>
        <mxCell id="FplRZ4Z4rtyI1NeGkcs9-21" value="&lt;font style=&quot;font-size: 18px;&quot;&gt;solicita&lt;br&gt;datos&lt;br&gt;&lt;/font&gt;" style="edgeLabel;html=1;align=center;verticalAlign=middle;resizable=0;points=[];" vertex="1" connectable="0" parent="FplRZ4Z4rtyI1NeGkcs9-18">
          <mxGeometry x="0.3059" y="-3" relative="1" as="geometry">
            <mxPoint as="offset" />
          </mxGeometry>
        </mxCell>
        <mxCell id="FplRZ4Z4rtyI1NeGkcs9-12" value="Controlador" style="rounded=1;whiteSpace=wrap;html=1;" vertex="1" parent="1">
          <mxGeometry x="270" y="220" width="100" height="60" as="geometry" />
        </mxCell>
        <mxCell id="FplRZ4Z4rtyI1NeGkcs9-17" style="edgeStyle=orthogonalEdgeStyle;rounded=0;orthogonalLoop=1;jettySize=auto;html=1;exitX=0.75;exitY=1;exitDx=0;exitDy=0;entryX=1;entryY=0.75;entryDx=0;entryDy=0;" edge="1" parent="1" source="FplRZ4Z4rtyI1NeGkcs9-13" target="FplRZ4Z4rtyI1NeGkcs9-12">
          <mxGeometry relative="1" as="geometry" />
        </mxCell>
        <mxCell id="FplRZ4Z4rtyI1NeGkcs9-22" value="&lt;font style=&quot;font-size: 18px;&quot;&gt;Recibe&lt;br&gt;datos&lt;br&gt;&lt;/font&gt;" style="edgeLabel;html=1;align=center;verticalAlign=middle;resizable=0;points=[];" vertex="1" connectable="0" parent="FplRZ4Z4rtyI1NeGkcs9-17">
          <mxGeometry x="0.088" relative="1" as="geometry">
            <mxPoint as="offset" />
          </mxGeometry>
        </mxCell>
        <mxCell id="FplRZ4Z4rtyI1NeGkcs9-13" value="&lt;div&gt;Modelo&lt;/div&gt;" style="rounded=1;whiteSpace=wrap;html=1;" vertex="1" parent="1">
          <mxGeometry x="410" y="70" width="100" height="60" as="geometry" />
        </mxCell>
      </root>
    </mxGraphModel>
  </diagram>
</mxfile>
